<svg xmlns="http://www.w3.org/2000/svg" width="1279.6328125" height="656.1253051757812" viewBox="-612.0558471679688 -243.13426208496094 1279.6328125 656.1253051757812"><title>Neo4j Graph Visualization</title><desc>Created using Neo4j (http://www.neo4j.com/)</desc><g class="layer relationships"><g class="relationship" transform="translate(-228.7386718762347 -183.22618279935887) rotate(185.54161552310575)"><path class="outline" fill="#8DCC93" stroke="none" d="M 32.5 1.5 L 71.36568196069676 1.5 L 71.36568196069676 -1.5 L 32.5 -1.5 Z M 145.81880696069675 1.5 L 184.68448892139352 1.5 L 184.68448892139352 4.5 L 193.68448892139352 0 L 184.68448892139352 -4.5 L 184.68448892139352 -1.5 L 145.81880696069675 -1.5 Z"/><text text-anchor="middle" pointer-events="none" font-size="8px" fill="#000000" x="108.59224446069676" y="3" transform="rotate(180 108.59224446069676 0)" font-family="sans-serif">IN_CONFERENCE</text></g><g class="relationship" transform="translate(-228.7386718762347 -183.22618279935887) rotate(522.267656628946)"><path class="outline" fill="#8DCC93" stroke="none" d="M 32.5 1.5 L 150.6892742521941 1.5 L 150.6892742521941 -1.5 L 32.5 -1.5 Z M 204.2556805021941 1.5 L 322.4449547543882 1.5 L 322.4449547543882 4.5 L 331.4449547543882 0 L 322.4449547543882 -4.5 L 322.4449547543882 -1.5 L 204.2556805021941 -1.5 Z"/><text text-anchor="middle" pointer-events="none" font-size="8px" fill="#000000" x="177.4724773771941" y="3" transform="rotate(180 177.4724773771941 0)" font-family="sans-serif">IN_DIVISION</text></g><g class="relationship" transform="translate(-228.7386718762347 -183.22618279935887) rotate(356.4160644667908)"><path class="outline" fill="#8DCC93" stroke="none" d="M 32.5 1.5 L 130.17013449495707 1.5 L 130.17013449495707 -1.5 L 32.5 -1.5 Z M 235.29513449495707 1.5 L 332.96526898991414 1.5 L 332.96526898991414 4.5 L 341.96526898991414 0 L 332.96526898991414 -4.5 L 332.96526898991414 -1.5 L 235.29513449495707 -1.5 Z"/><text text-anchor="middle" pointer-events="none" font-size="8px" fill="#000000" x="182.73263449495707" y="3" font-family="sans-serif">CURRENT_HEAD_COACH</text></g><g class="relationship" transform="translate(-575.3924938568766 -72.37918104745286) rotate(312.4856935085036)"><path class="outline" fill="#8DCC93" stroke="none" d="M 32.5 1.5 L 48.23890299675166 1.5 L 48.23890299675166 -1.5 L 32.5 -1.5 Z M 122.69202799675166 1.5 L 138.43093099350332 1.5 L 138.43093099350332 4.5 L 147.43093099350332 0 L 138.43093099350332 -4.5 L 138.43093099350332 -1.5 L 122.69202799675166 -1.5 Z"/><text text-anchor="middle" pointer-events="none" font-size="8px" fill="#000000" x="85.46546549675166" y="3" font-family="sans-serif">IN_CONFERENCE</text></g><g class="relationship" transform="translate(314.93596863100504 271.16452764835697) rotate(392.70157628719005)"><path class="outline" fill="#8DCC93" stroke="none" d="M 32.5 1.5 L 59.2568763443453 1.5 L 59.2568763443453 -1.5 L 32.5 -1.5 Z M 121.4287513443453 1.5 L 148.1856276886906 1.5 L 148.1856276886906 4.5 L 157.1856276886906 0 L 148.1856276886906 -4.5 L 148.1856276886906 -1.5 L 121.4287513443453 -1.5 Z"/><text text-anchor="middle" pointer-events="none" font-size="8px" fill="#000000" x="90.3428138443453" y="3" font-family="sans-serif">IS_CATEGORY</text></g><g class="relationship" transform="translate(314.93596863100504 271.16452764835697) rotate(340.3689515272921)"><path class="outline" fill="#D9C8AE" stroke="none" d="M 27.39582562299426,17.549038105676654 L 28.89582562299426,14.950961894323338 A 275.8745741622149 275.8745741622149 0 0 0 137.51767345517865,50.34914173871482 L 137.19888250456694,53.33215570613237 A 278.8745741622149 278.8745741622149 0 0 1 27.39582562299426,17.549038105676654 Z M 189.19185979443236,54.013396162654146 L 188.95133502994818,51.02305373449144 A 275.8745741622149 275.8745741622149 0 0 0 298.46334701784355,18.48298315778425 L 297.03193310758945,15.846497956321706 L 307.08850957735825,15.506984027753159 L 301.3261748383518,23.755953560709344 L 299.8947609280977,21.1194683592468 A 278.8745741622149 278.8745741622149 0 0 1 189.19185979443236,54.013396162654146"/><text text-anchor="middle" pointer-events="none" font-size="8px" fill="#000000" x="163.1991110840437" y="56.38734025606209" font-family="sans-serif">IN_SEASON</text></g><g class="relationship" transform="translate(314.93596863100504 271.16452764835697) rotate(219.88809868060162)"><path class="outline" fill="#57C7E3" stroke="none" d="M 31.00436078674094,9.860507705265526 L 31.7808179220485,6.962730226398321 A 1244.2195523700668 1244.2195523700668 0 0 0 322.2769491795255,48.95887523682222 L 322.20092179724054,51.95791172161921 A 1247.2195523700668 1247.2195523700668 0 0 1 31.00436078674094,9.860507705265526 Z M 377.31712543946384,52.13690934862575 L 377.2605790414449,49.13744231182227 A 1244.2195523700668 1244.2195523700668 0 0 0 668.0233564430943,9.02901739913754 L 667.2657373681966,6.126257791910103 L 677.1104448022254,8.207539978058211 L 669.5385945928897,14.834536613592412 L 668.780975517992,11.931777006364975 A 1247.2195523700668 1247.2195523700668 0 0 1 377.31712543946384,52.13690934862575"/><text text-anchor="middle" pointer-events="none" font-size="8px" fill="#000000" x="349.7629061614695" y="53.851914032280774" transform="rotate(180 349.7629061614695 50.851914032280774)" font-family="sans-serif">AWAY_TEAM</text></g><g class="relationship" transform="translate(314.93596863100504 271.16452764835697) rotate(219.88809868060162)"><path class="outline" fill="#57C7E3" stroke="none" d="M 31.00436078674094,-9.860507705265526 L 31.7808179220485,-6.962730226398321 A 1244.2195523700668 1244.2195523700668 0 0 1 321.46959516015096,-48.93814612947813 L 321.3916211262051,-51.93713263328732 A 1247.2195523700668 1247.2195523700668 0 0 0 31.00436078674094,-9.860507705265526 Z M 378.1265440036181,-52.12138727878846 L 378.068050670364,-49.12195757800123 A 1244.2195523700668 1244.2195523700668 0 0 1 668.0233564430943,-9.02901739913754 L 667.2657373681966,-6.126257791910103 L 677.1104448022254,-8.207539978058211 L 669.5385945928897,-14.834536613592412 L 668.780975517992,-11.931777006364975 A 1247.2195523700668 1247.2195523700668 0 0 0 378.1265440036181,-52.12138727878846"/><text text-anchor="middle" pointer-events="none" font-size="8px" fill="#000000" x="349.7629061614693" y="-47.851914032280774" transform="rotate(180 349.7629061614693 -50.851914032280774)" font-family="sans-serif">HOME_TEAM</text></g><g class="relationship" transform="translate(314.93596863100504 271.16452764835697) rotate(500.7067664962716)"><path class="outline" fill="#8DCC93" stroke="none" d="M 32.5 1.5 L 33.40829522353842 1.5 L 33.40829522353842 -1.5 L 32.5 -1.5 Z M 114.84970147353842 1.5 L 115.75799669707683 1.5 L 115.75799669707683 4.5 L 124.75799669707683 0 L 115.75799669707683 -4.5 L 115.75799669707683 -1.5 L 114.84970147353842 -1.5 Z"/><text text-anchor="middle" pointer-events="none" font-size="8px" fill="#000000" x="74.12899834853842" y="3" transform="rotate(180 74.12899834853842 0)" font-family="sans-serif">PLAYED_IN_VENUE</text></g><g class="relationship" transform="translate(314.93596863100504 271.16452764835697) rotate(531.6527087907559)"><path class="outline" fill="#8DCC93" stroke="none" d="M 32.5 1.5 L 313.4732172877192 1.5 L 313.4732172877192 -1.5 L 32.5 -1.5 Z M 403.0513422877192 1.5 L 684.0245595754384 1.5 L 684.0245595754384 4.5 L 693.0245595754384 0 L 684.0245595754384 -4.5 L 684.0245595754384 -1.5 L 403.0513422877192 -1.5 Z"/><text text-anchor="middle" pointer-events="none" font-size="8px" fill="#000000" x="358.2622797877192" y="3" transform="rotate(180 358.2622797877192 0)" font-family="sans-serif">SETTLED_IN_PERIOD</text></g><g class="relationship" transform="translate(-62.09350387574273 210.9353129800398) rotate(247.0821370111529)"><path class="outline" fill="#57C7E3" stroke="none" d="M 32.5 1.5 L 184.69143521993226 1.5 L 184.69143521993226 -1.5 L 32.5 -1.5 Z M 234.25002896993226 1.5 L 386.4414641898645 1.5 L 386.4414641898645 4.5 L 395.4414641898645 0 L 386.4414641898645 -4.5 L 386.4414641898645 -1.5 L 234.25002896993226 -1.5 Z"/><text text-anchor="middle" pointer-events="none" font-size="8px" fill="#000000" x="209.47073209493226" y="3" transform="rotate(180 209.47073209493226 0)" font-family="sans-serif">FOR_TEAM</text></g><g class="relationship" transform="translate(-62.09350387574273 210.9353129800398) rotate(221.61869798030665)"><path class="outline" fill="#C990C0" stroke="none" d="M 32.5 1.5 L 43.09458300677147 1.5 L 43.09458300677147 -1.5 L 32.5 -1.5 Z M 101.41098925677147 1.5 L 112.00557226354294 1.5 L 112.00557226354294 4.5 L 121.00557226354294 0 L 112.00557226354294 -4.5 L 112.00557226354294 -1.5 L 101.41098925677147 -1.5 Z"/><text text-anchor="middle" pointer-events="none" font-size="8px" fill="#000000" x="72.25278613177147" y="3" transform="rotate(180 72.25278613177147 0)" font-family="sans-serif">FOR_PLAYER</text></g><g class="relationship" transform="translate(-62.09350387574273 210.9353129800398) rotate(369.07612569418893)"><path class="outline" fill="#FFC454" stroke="none" d="M 32.5 1.5 L 165.4010317677728 1.5 L 165.4010317677728 -1.5 L 32.5 -1.5 Z M 207.4088442677728 1.5 L 340.3098760355456 1.5 L 340.3098760355456 4.5 L 349.3098760355456 0 L 340.3098760355456 -4.5 L 340.3098760355456 -1.5 L 207.4088442677728 -1.5 Z"/><text text-anchor="middle" pointer-events="none" font-size="8px" fill="#000000" x="186.4049380177728" y="3" font-family="sans-serif">IN_GAME</text></g><g class="relationship" transform="translate(144.99425324137502 -206.63426607680526) rotate(396.9054135281189)"><path class="outline" fill="#D9C8AE" stroke="none" d="M 31.00436078674094,9.860507705265526 L 31.7808179220485,6.962730226398321 A 1049.437446089083 1049.437446089083 0 0 0 250.9494877862403,41.4101348901936 L 250.79956252478846,44.40638628418219 A 1052.437446089083 1052.437446089083 0 0 1 31.00436078674094,9.860507705265526 Z M 348.04742305488287,44.77377838148027 L 347.9201407894889,41.77647972687214 A 1049.437446089083 1049.437446089083 0 0 0 567.3428281449843,8.986026668052403 L 566.5882878524258,6.082465243369674 L 576.4307825653118,8.174186502718005 L 568.8519087301015,14.793149517417861 L 568.097368437543,11.889588092735131 A 1052.437446089083 1052.437446089083 0 0 1 348.04742305488287,44.77377838148027"/><text text-anchor="middle" pointer-events="none" font-size="8px" fill="#000000" x="299.42491379902896" y="47.21394440048721" font-family="sans-serif">LAST_ACTIVE_SEASON</text></g><g class="relationship" transform="translate(144.99425324137502 -206.63426607680526) rotate(396.9054135281189)"><path class="outline" fill="#D9C8AE" stroke="none" d="M 31.00436078674094,-9.860507705265526 L 31.7808179220485,-6.962730226398321 A 1049.437446089083 1049.437446089083 0 0 1 249.4029126122239,-41.33160398758787 L 249.24856619585776,-44.32763088729257 A 1052.437446089083 1052.437446089083 0 0 0 31.00436078674094,-9.860507705265526 Z M 349.59897016188137,-44.706744064454824 L 349.46726517156605,-41.709636492890695 A 1049.437446089083 1049.437446089083 0 0 1 567.3428281449843,-8.986026668052403 L 566.5882878524258,-6.082465243369674 L 576.4307825653118,-8.174186502718005 L 568.8519087301015,-14.793149517417861 L 568.097368437543,-11.889588092735131 A 1052.437446089083 1052.437446089083 0 0 0 349.59897016188137,-44.706744064454824"/><text text-anchor="middle" pointer-events="none" font-size="8px" fill="#000000" x="299.42491379902873" y="-41.21394440048721" font-family="sans-serif">FIRST_ACTIVE_SEASON</text></g><g class="relationship" transform="translate(360.2274421614161 112.37838431099325) rotate(180.36237779494292)"><path class="outline" fill="#C990C0" stroke="none" d="M 32.5 1.5 L 234.88659508493663 1.5 L 234.88659508493663 -1.5 L 32.5 -1.5 Z M 293.20300133493663 1.5 L 495.58959641987326 1.5 L 495.58959641987326 4.5 L 504.58959641987326 0 L 495.58959641987326 -4.5 L 495.58959641987326 -1.5 L 293.20300133493663 -1.5 Z"/><text text-anchor="middle" pointer-events="none" font-size="8px" fill="#000000" x="264.04479820993663" y="3" transform="rotate(180 264.04479820993663 0)" font-family="sans-serif">FOR_PLAYER</text></g><g class="relationship" transform="translate(360.2274421614161 112.37838431099325) rotate(369.64309820857886)"><path class="outline" fill="#D9C8AE" stroke="none" d="M 32.5 1.5 L 106.96917777211024 1.5 L 106.96917777211024 -1.5 L 32.5 -1.5 Z M 158.76214652211024 1.5 L 233.23132429422049 1.5 L 233.23132429422049 4.5 L 242.23132429422049 0 L 233.23132429422049 -4.5 L 233.23132429422049 -1.5 L 158.76214652211024 -1.5 Z"/><text text-anchor="middle" pointer-events="none" font-size="8px" fill="#000000" x="132.86566214711024" y="3" font-family="sans-serif">IN_SEASON</text></g><g class="relationship" transform="translate(309.7353352554388 -149.85222842743312) rotate(183.5465850962742)"><path class="outline" fill="#57C7E3" stroke="none" d="M 32.5 1.5 L 240.47433015662165 1.5 L 240.47433015662165 -1.5 L 32.5 -1.5 Z M 290.03292390662165 1.5 L 498.0072540632433 1.5 L 498.0072540632433 4.5 L 507.0072540632433 0 L 498.0072540632433 -4.5 L 498.0072540632433 -1.5 L 290.03292390662165 -1.5 Z"/><text text-anchor="middle" pointer-events="none" font-size="8px" fill="#000000" x="265.25362703162165" y="3" transform="rotate(180 265.25362703162165 0)" font-family="sans-serif">FOR_TEAM</text></g><g class="relationship" transform="translate(309.7353352554388 -149.85222842743312) rotate(449.2922866257337)"><path class="outline" fill="#FFC454" stroke="none" d="M 32.5 1.5 L 185.02053145503723 1.5 L 185.02053145503723 -1.5 L 32.5 -1.5 Z M 227.02834395503723 1.5 L 379.54887541007446 1.5 L 379.54887541007446 4.5 L 388.54887541007446 0 L 379.54887541007446 -4.5 L 379.54887541007446 -1.5 L 227.02834395503723 -1.5 Z"/><text text-anchor="middle" pointer-events="none" font-size="8px" fill="#000000" x="206.02443770503723" y="3" font-family="sans-serif">IN_GAME</text></g><g class="relationship" transform="translate(483.5544472476454 -91.37950133126463) rotate(419.43331816406396)"><path class="outline" fill="#D9C8AE" stroke="none" d="M 32.5 1.5 L 114.64836976309874 1.5 L 114.64836976309874 -1.5 L 32.5 -1.5 Z M 166.44133851309874 1.5 L 248.58970827619748 1.5 L 248.58970827619748 4.5 L 257.5897082761975 0 L 248.58970827619748 -4.5 L 248.58970827619748 -1.5 L 166.44133851309874 -1.5 Z"/><text text-anchor="middle" pointer-events="none" font-size="8px" fill="#000000" x="140.54485413809874" y="3" font-family="sans-serif">IN_SEASON</text></g><g class="relationship" transform="translate(483.5544472476454 -91.37950133126463) rotate(187.34746524020272)"><path class="outline" fill="#57C7E3" stroke="none" d="M 32.5 1.5 L 329.81585083933754 1.5 L 329.81585083933754 -1.5 L 32.5 -1.5 Z M 379.37444458933754 1.5 L 676.6902954286751 1.5 L 676.6902954286751 4.5 L 685.6902954286751 0 L 676.6902954286751 -4.5 L 676.6902954286751 -1.5 L 379.37444458933754 -1.5 Z"/><text text-anchor="middle" pointer-events="none" font-size="8px" fill="#000000" x="354.59514771433754" y="3" transform="rotate(180 354.59514771433754 0)" font-family="sans-serif">FOR_TEAM</text></g><g class="relationship" transform="translate(-297.44220450321984 279.9185584072826) rotate(359.1810046846349)"><path class="outline" fill="#FFC454" stroke="none" d="M 32.5 1.5 L 280.7164637393832 1.5 L 280.7164637393832 -1.5 L 32.5 -1.5 Z M 322.7242762393832 1.5 L 570.9407399787664 1.5 L 570.9407399787664 4.5 L 579.9407399787664 0 L 570.9407399787664 -4.5 L 570.9407399787664 -1.5 L 322.7242762393832 -1.5 Z"/><text text-anchor="middle" pointer-events="none" font-size="8px" fill="#000000" x="301.7203699893832" y="3" font-family="sans-serif">IN_GAME</text></g><g class="relationship" transform="translate(-297.44220450321984 279.9185584072826) rotate(305.20177950716834)"><path class="outline" fill="#C990C0" stroke="none" d="M 32.5 1.5 L 70.93819093108118 1.5 L 70.93819093108118 -1.5 L 32.5 -1.5 Z M 129.25459718108118 1.5 L 167.69278811216236 1.5 L 167.69278811216236 4.5 L 176.69278811216236 0 L 167.69278811216236 -4.5 L 167.69278811216236 -1.5 L 129.25459718108118 -1.5 Z"/><text text-anchor="middle" pointer-events="none" font-size="8px" fill="#000000" x="100.09639405608118" y="3" font-family="sans-serif">FOR_PLAYER</text></g><g class="relationship" transform="translate(-297.44220450321984 279.9185584072826) rotate(497.51895999610383)"><path class="outline" fill="#8DCC93" stroke="none" d="M 32.5 1.5 L 42.43794513550165 1.5 L 42.43794513550165 -1.5 L 32.5 -1.5 Z M 91.55903888550165 1.5 L 101.4969840210033 1.5 L 101.4969840210033 4.5 L 110.4969840210033 0 L 101.4969840210033 -4.5 L 101.4969840210033 -1.5 L 91.55903888550165 -1.5 Z"/><text text-anchor="middle" pointer-events="none" font-size="8px" fill="#000000" x="66.99849201050165" y="3" transform="rotate(180 66.99849201050165 0)" font-family="sans-serif">IN_PERIOD</text></g><g class="relationship" transform="translate(-374.9055597698743 163.33361817761266) rotate(248.0650641327046)"><path class="outline" fill="#8DCC93" stroke="none" d="M 32.5 1.5 L 71.19929943622557 1.5 L 71.19929943622557 -1.5 L 32.5 -1.5 Z M 118.40242443622557 1.5 L 157.10172387245115 1.5 L 157.10172387245115 4.5 L 166.10172387245115 0 L 157.10172387245115 -4.5 L 157.10172387245115 -1.5 L 118.40242443622557 -1.5 Z"/><text text-anchor="middle" pointer-events="none" font-size="8px" fill="#000000" x="94.80086193622557" y="3" transform="rotate(180 94.80086193622557 0)" font-family="sans-serif">FOR_PLAY</text></g><g class="relationship" transform="translate(-374.9055597698743 163.33361817761266) rotate(344.6540794694969)"><path class="outline" fill="#C990C0" stroke="none" d="M 32.5 1.5 L 69.03016026767122 1.5 L 69.03016026767122 -1.5 L 32.5 -1.5 Z M 127.34656651767122 1.5 L 163.87672678534244 1.5 L 163.87672678534244 4.5 L 172.87672678534244 0 L 163.87672678534244 -4.5 L 163.87672678534244 -1.5 L 127.34656651767122 -1.5 Z"/><text text-anchor="middle" pointer-events="none" font-size="8px" fill="#000000" x="98.18836339267122" y="3" font-family="sans-serif">FOR_PLAYER</text></g><g class="relationship" transform="translate(13.712664120603705 7.3488680998242515) rotate(401.21233717393375)"><path class="outline" fill="#FFC454" stroke="none" d="M 32.5 1.5 L 174.70484818096472 1.5 L 174.70484818096472 -1.5 L 32.5 -1.5 Z M 216.71266068096472 1.5 L 358.91750886192943 1.5 L 358.91750886192943 4.5 L 367.91750886192943 0 L 358.91750886192943 -4.5 L 358.91750886192943 -1.5 L 216.71266068096472 -1.5 Z"/><text text-anchor="middle" pointer-events="none" font-size="8px" fill="#000000" x="195.70875443096472" y="3" font-family="sans-serif">IN_GAME</text></g><g class="relationship" transform="translate(13.712664120603705 7.3488680998242515) rotate(511.92787775712844)"><path class="outline" fill="#C990C0" stroke="none" d="M 32.5 1.5 L 74.32774013097931 1.5 L 74.32774013097931 -1.5 L 32.5 -1.5 Z M 132.6441463809793 1.5 L 174.47188651195862 1.5 L 174.47188651195862 4.5 L 183.47188651195862 0 L 174.47188651195862 -4.5 L 174.47188651195862 -1.5 L 132.6441463809793 -1.5 Z"/><text text-anchor="middle" pointer-events="none" font-size="8px" fill="#000000" x="103.48594325597931" y="3" transform="rotate(180 103.48594325597931 0)" font-family="sans-serif">FOR_PLAYER</text></g><g class="relationship" transform="translate(13.712664120603705 7.3488680998242515) rotate(218.1685593500098)"><path class="outline" fill="#57C7E3" stroke="none" d="M 32.5 1.5 L 124.91335887737205 1.5 L 124.91335887737205 -1.5 L 32.5 -1.5 Z M 174.47195262737205 1.5 L 266.8853115047441 1.5 L 266.8853115047441 4.5 L 275.8853115047441 0 L 266.8853115047441 -4.5 L 266.8853115047441 -1.5 L 174.47195262737205 -1.5 Z"/><text text-anchor="middle" pointer-events="none" font-size="8px" fill="#000000" x="149.69265575237205" y="3" transform="rotate(180 149.69265575237205 0)" font-family="sans-serif">FOR_TEAM</text></g><g class="relationship" transform="translate(-176.85141205959567 108.98148409056563) rotate(259.93095305959355)"><path class="outline" fill="#57C7E3" stroke="none" d="M 32.5 1.5 L 107.99873472681168 1.5 L 107.99873472681168 -1.5 L 32.5 -1.5 Z M 179.77998472681168 1.5 L 255.27871945362335 1.5 L 255.27871945362335 4.5 L 264.27871945362335 0 L 255.27871945362335 -4.5 L 255.27871945362335 -1.5 L 179.77998472681168 -1.5 Z"/><text text-anchor="middle" pointer-events="none" font-size="8px" fill="#000000" x="143.88935972681168" y="3" transform="rotate(180 143.88935972681168 0)" font-family="sans-serif">CURRENT_TEAM</text></g><g class="relationship" transform="translate(-176.85141205959567 108.98148409056563) rotate(235.64214147015662)"><path class="outline" fill="#8DCC93" stroke="none" d="M 32.5 1.5 L 63.455917403460546 1.5 L 63.455917403460546 -1.5 L 32.5 -1.5 Z M 120.73326115346055 1.5 L 151.6891785569211 1.5 L 151.6891785569211 4.5 L 160.6891785569211 0 L 151.6891785569211 -4.5 L 151.6891785569211 -1.5 L 120.73326115346055 -1.5 Z"/><text text-anchor="middle" pointer-events="none" font-size="8px" fill="#000000" x="92.09458927846055" y="3" transform="rotate(180 92.09458927846055 0)" font-family="sans-serif">HAS_STATUS</text></g><g class="relationship" transform="translate(-449.09392040107366 -20.891059517761363) rotate(481.08103212815075)"><path class="outline" fill="#8DCC93" stroke="none" d="M 31.00436078674094,-9.860507705265526 L 31.7808179220485,-6.962730226398321 A 345.1876184000826 345.1876184000826 0 0 1 95.73187676548173,-17.78967086143018 L 95.51121354137968,-20.781544478668877 A 348.1876184000826 348.1876184000826 0 0 0 31.00436078674094,-9.860507705265526 Z M 140.35127671771932,-21.19331931210627 L 140.18559596397648,-18.197897824595827 A 345.1876184000826 345.1876184000826 0 0 1 204.3247045500721,-8.547233573271138 L 203.60159555875194,-5.63568529328815 L 213.42090388568118,-7.833680739302058 L 205.7709225327125,-14.370330133237113 L 205.04781354139232,-11.458781853254125 A 348.1876184000826 348.1876184000826 0 0 0 140.35127671771932,-21.19331931210627"/><text text-anchor="middle" pointer-events="none" font-size="8px" fill="#000000" x="117.93838355512808" y="-17.210095769108307" transform="rotate(180 117.93838355512808 -20.210095769108307)" font-family="sans-serif">IS_EVENT</text></g><g class="relationship" transform="translate(-449.09392040107366 -20.891059517761363) rotate(380.91969351851674)"><path class="outline" fill="#FFC454" stroke="none" d="M 32.5 1.5 L 383.4698512605879 1.5 L 383.4698512605879 -1.5 L 32.5 -1.5 Z M 425.4776637605879 1.5 L 776.4475150211758 1.5 L 776.4475150211758 4.5 L 785.4475150211758 0 L 776.4475150211758 -4.5 L 776.4475150211758 -1.5 L 425.4776637605879 -1.5 Z"/><text text-anchor="middle" pointer-events="none" font-size="8px" fill="#000000" x="404.4737575105879" y="3" font-family="sans-serif">IN_GAME</text></g><g class="relationship" transform="translate(-449.09392040107366 -20.891059517761363) rotate(443.3697476162682)"><path class="outline" fill="#8DCC93" stroke="none" d="M 32.5 1.5 L 170.96830157491152 1.5 L 170.96830157491152 -1.5 L 32.5 -1.5 Z M 220.08939532491152 1.5 L 358.55769689982304 1.5 L 358.55769689982304 4.5 L 367.55769689982304 0 L 358.55769689982304 -4.5 L 358.55769689982304 -1.5 L 220.08939532491152 -1.5 Z"/><text text-anchor="middle" pointer-events="none" font-size="8px" fill="#000000" x="195.52884844991152" y="3" font-family="sans-serif">IN_PERIOD</text></g><g class="relationship" transform="translate(-449.09392040107366 -20.891059517761363) rotate(481.08103212815075)"><path class="outline" fill="#8DCC93" stroke="none" d="M 31.00436078674094,9.860507705265526 L 31.7808179220485,6.962730226398321 A 345.1876184000826 345.1876184000826 0 0 0 71.38558165884805,15.122787885454954 L 70.95332658895956,18.09148382046675 A 348.1876184000826 348.1876184000826 0 0 1 31.00436078674094,9.860507705265526 Z M 164.95442454960562,18.954713791920085 L 164.57676198032664,15.978580229096394 A 345.1876184000826 345.1876184000826 0 0 0 204.3247045500721,8.547233573271138 L 203.60159555875194,5.63568529328815 L 213.42090388568118,7.833680739302058 L 205.7709225327125,14.370330133237113 L 205.04781354139232,11.458781853254125 A 348.1876184000826 348.1876184000826 0 0 1 164.95442454960562,18.954713791920085"/><text text-anchor="middle" pointer-events="none" font-size="8px" fill="#000000" x="117.93838355512815" y="23.210095769108307" transform="rotate(180 117.93838355512815 20.210095769108307)" font-family="sans-serif">IS_SECONDARY_TYPE</text></g><g class="relationship" transform="translate(-449.09392040107366 -20.891059517761363) rotate(323.6210246694122)"><path class="outline" fill="#57C7E3" stroke="none" d="M 31.00436078674094,9.860507705265526 L 31.7808179220485,6.962730226398321 A 401.2462077480175 401.2462077480175 0 0 0 86.56316163915929,17.623345819362953 L 86.19629599151644,20.6008295886856 A 404.2462077480175 404.2462077480175 0 0 1 31.00436078674094,9.860507705265526 Z M 178.44033494543083,21.361733489708 L 178.1226372958609,18.378602885215855 A 401.2462077480175 401.2462077480175 0 0 0 233.07338931765764,8.623155166141835 L 232.3448410410111,5.71296317787107 L 242.1682394207932,7.892606330337591 L 234.53048587095074,14.443539142683367 L 233.8019375943042,11.533347154412603 A 404.2462077480175 404.2462077480175 0 0 1 178.44033494543083,21.361733489708"/><text text-anchor="middle" pointer-events="none" font-size="8px" fill="#000000" x="132.30891280768293" y="25.121161893447095" font-family="sans-serif">TEAM_AGAINST_PLAY</text></g><g class="relationship" transform="translate(-449.09392040107366 -20.891059517761363) rotate(323.6210246694122)"><path class="outline" fill="#57C7E3" stroke="none" d="M 31.00436078674094,-9.860507705265526 L 31.7808179220485,-6.962730226398321 A 401.2462077480175 401.2462077480175 0 0 1 95.58808542339457,-18.631796874949885 L 95.288696479157,-21.616820536509124 A 404.2462077480175 404.2462077480175 0 0 0 31.00436078674094,-9.860507705265526 Z M 169.332411420853,-22.227593353747523 L 169.08230567455894,-19.238037012804796 A 401.2462077480175 401.2462077480175 0 0 1 233.07338931765764,-8.623155166141835 L 232.3448410410111,-5.71296317787107 L 242.1682394207932,-7.892606330337591 L 234.53048587095074,-14.443539142683367 L 233.8019375943042,-11.533347154412603 A 404.2462077480175 404.2462077480175 0 0 0 169.332411420853,-22.227593353747523"/><text text-anchor="middle" pointer-events="none" font-size="8px" fill="#000000" x="132.30891280768273" y="-19.121161893447095" font-family="sans-serif">TEAM_FOR_PLAY</text></g><g class="relationship" transform="translate(631.0768990390505 158.3987304368818) rotate(201.66908638529605)"><path class="outline" fill="#57C7E3" stroke="none" d="M 32.5 1.5 L 397.3116361194206 1.5 L 397.3116361194206 -1.5 L 32.5 -1.5 Z M 518.8858548694207 1.5 L 883.6974909888412 1.5 L 883.6974909888412 4.5 L 892.6974909888412 0 L 883.6974909888412 -4.5 L 883.6974909888412 -1.5 L 518.8858548694207 -1.5 Z"/><text text-anchor="middle" pointer-events="none" font-size="8px" fill="#000000" x="458.0987454944206" y="3" transform="rotate(180 458.0987454944206 0)" font-family="sans-serif">WINNING_TEAM_OF_SEASON</text></g><g class="relationship" transform="translate(631.0768990390505 158.3987304368818) rotate(520.3689515272921)"><path class="outline" fill="#FFC454" stroke="none" d="M 32.5 1.5 L 111.19631004660141 1.5 L 111.19631004660141 -1.5 L 32.5 -1.5 Z M 215.4541225466014 1.5 L 294.1504325932028 1.5 L 294.1504325932028 4.5 L 303.1504325932028 0 L 294.1504325932028 -4.5 L 294.1504325932028 -1.5 L 215.4541225466014 -1.5 Z"/><text text-anchor="middle" pointer-events="none" font-size="8px" fill="#000000" x="163.3252162966014" y="3" transform="rotate(180 163.3252162966014 0)" font-family="sans-serif">LAST_GAME_IN_SEASON</text></g><g class="relationship" transform="translate(631.0768990390505 158.3987304368818) rotate(520.3689515272921)"><path class="outline" fill="#FFC454" stroke="none" d="M 27.39582562299426,17.549038105676654 L 28.89582562299426,14.950961894323338 A 275.8745741622149 275.8745741622149 0 0 0 110.23403626935321,46.042730148666635 L 109.61854921397708,48.978914012913606 A 278.8745741622149 278.8745741622149 0 0 1 27.39582562299426,17.549038105676654 Z M 216.87678243783694,50.38427011244568 L 216.33843644608697,47.43296809584916 A 275.8745741622149 275.8745741622149 0 0 0 298.46334701784355,18.48298315778425 L 297.03193310758945,15.846497956321706 L 307.08850957735825,15.506984027753159 L 301.3261748383518,23.755953560709344 L 299.8947609280977,21.1194683592468 A 278.8745741622149 278.8745741622149 0 0 1 216.87678243783694,50.38427011244568"/><text text-anchor="middle" pointer-events="none" font-size="8px" fill="#000000" x="163.1991110840437" y="56.38734025606209" transform="rotate(180 163.1991110840437 53.38734025606209)" font-family="sans-serif">FIRST_GAME_IN_SEASON</text></g></g><g class="layer nodes"><g class="node" transform="translate(-228.7386718762347,-183.22618279935887)"><circle class="outline" cx="0" cy="0" r="32.5" fill="#4C8EDA" stroke="#2870c2" stroke-width="2px"/><text text-anchor="middle" pointer-events="none" font-family="sans-serif" dy="2.03125" font-size="32.5" fill="#FFFFFF"/><text text-anchor="middle" pointer-events="none" y="5" font-size="10px" fill="#FFFFFF" font-family="sans-serif"> teams</text></g><g class="node" transform="translate(-453.8660469585922,-205.06852738869955)"><circle class="outline" cx="0" cy="0" r="32.5" fill="#4C8EDA" stroke="#2870c2" stroke-width="2px"/><text text-anchor="middle" pointer-events="none" font-family="sans-serif" dy="2.03125" font-size="32.5" fill="#FFFFFF"/><text text-anchor="middle" pointer-events="none" y="5" font-size="10px" fill="#FFFFFF" font-family="sans-serif"> conferences</text></g><g class="node" transform="translate(-575.3924938568766,-72.37918104745286)"><circle class="outline" cx="0" cy="0" r="32.5" fill="#4C8EDA" stroke="#2870c2" stroke-width="2px"/><text text-anchor="middle" pointer-events="none" font-family="sans-serif" dy="2.03125" font-size="32.5" fill="#FFFFFF"/><text text-anchor="middle" pointer-events="none" y="5" font-size="10px" fill="#FFFFFF" font-family="sans-serif"> divisions</text></g><g class="node" transform="translate(474.55565019715607,373.64474334081683)"><circle class="outline" cx="0" cy="0" r="32.5" fill="#4C8EDA" stroke="#2870c2" stroke-width="2px"/><text text-anchor="middle" pointer-events="none" font-family="sans-serif" dy="2.03125" font-size="32.5" fill="#FFFFFF"/><text text-anchor="middle" pointer-events="none" y="5" font-size="10px" fill="#FFFFFF" font-family="sans-serif"> game_cate…</text></g><g class="node" transform="translate(-402.90260304431956,376.49102745853696)"><circle class="outline" cx="0" cy="0" r="32.5" fill="#4C8EDA" stroke="#2870c2" stroke-width="2px"/><text text-anchor="middle" pointer-events="none" font-family="sans-serif" dy="2.03125" font-size="32.5" fill="#FFFFFF"/><text text-anchor="middle" pointer-events="none" y="5" font-size="10px" fill="#FFFFFF" font-family="sans-serif"> game_perio…</text></g><g class="node" transform="translate(193.23164531274415,370.7543625253264)"><circle class="outline" cx="0" cy="0" r="32.5" fill="#4C8EDA" stroke="#2870c2" stroke-width="2px"/><text text-anchor="middle" pointer-events="none" font-family="sans-serif" dy="2.03125" font-size="32.5" fill="#FFFFFF"/><text text-anchor="middle" pointer-events="none" y="5" font-size="10px" fill="#FFFFFF" font-family="sans-serif"> game_venu…</text></g><g class="node" transform="translate(314.93596863100504,271.16452764835697)"><circle class="outline" cx="0" cy="0" r="32.5" fill="#4C8EDA" stroke="#2870c2" stroke-width="2px"/><text text-anchor="middle" pointer-events="none" font-family="sans-serif" dy="2.03125" font-size="32.5" fill="#FFFFFF"/><text text-anchor="middle" pointer-events="none" y="5" font-size="10px" fill="#FFFFFF" font-family="sans-serif"> games</text></g><g class="node" transform="translate(-62.09350387574273,210.9353129800398)"><circle class="outline" cx="0" cy="0" r="32.5" fill="#4C8EDA" stroke="#2870c2" stroke-width="2px"/><text text-anchor="middle" pointer-events="none" font-family="sans-serif" dy="2.03125" font-size="32.5" fill="#FFFFFF"/><text text-anchor="middle" pointer-events="none" y="5" font-size="10px" fill="#FFFFFF" font-family="sans-serif"> goalies_per…</text></g><g class="node" transform="translate(144.99425324137502,-206.63426607680526)"><circle class="outline" cx="0" cy="0" r="32.5" fill="#4C8EDA" stroke="#2870c2" stroke-width="2px"/><text text-anchor="middle" pointer-events="none" font-family="sans-serif" dy="2.03125" font-size="32.5" fill="#FFFFFF"/><text text-anchor="middle" pointer-events="none" y="5" font-size="10px" fill="#FFFFFF" font-family="sans-serif"> head_coac…</text></g><g class="node" transform="translate(-575.5558611561745,188.90429463407048)"><circle class="outline" cx="0" cy="0" r="32.5" fill="#4C8EDA" stroke="#2870c2" stroke-width="2px"/><text text-anchor="middle" pointer-events="none" font-family="sans-serif" dy="2.03125" font-size="32.5" fill="#FFFFFF"/><text text-anchor="middle" pointer-events="none" y="5" font-size="10px" fill="#FFFFFF" font-family="sans-serif"> play_event_…</text></g><g class="node" transform="translate(360.2274421614161,112.37838431099325)"><circle class="outline" cx="0" cy="0" r="32.5" fill="#4C8EDA" stroke="#2870c2" stroke-width="2px"/><text text-anchor="middle" pointer-events="none" font-family="sans-serif" dy="2.03125" font-size="32.5" fill="#FFFFFF"/><text text-anchor="middle" pointer-events="none" y="5" font-size="10px" fill="#FFFFFF" font-family="sans-serif"> player_stats…</text></g><g class="node" transform="translate(309.7353352554388,-149.85222842743312)"><circle class="outline" cx="0" cy="0" r="32.5" fill="#4C8EDA" stroke="#2870c2" stroke-width="2px"/><text text-anchor="middle" pointer-events="none" font-family="sans-serif" dy="2.03125" font-size="32.5" fill="#FFFFFF"/><text text-anchor="middle" pointer-events="none" y="5" font-size="10px" fill="#FFFFFF" font-family="sans-serif"> teams_per_…</text></g><g class="node" transform="translate(483.5544472476454,-91.37950133126463)"><circle class="outline" cx="0" cy="0" r="32.5" fill="#4C8EDA" stroke="#2870c2" stroke-width="2px"/><text text-anchor="middle" pointer-events="none" font-family="sans-serif" dy="2.03125" font-size="32.5" fill="#FFFFFF"/><text text-anchor="middle" pointer-events="none" y="5" font-size="10px" fill="#FFFFFF" font-family="sans-serif"> team_stats…</text></g><g class="node" transform="translate(-297.44220450321984,279.9185584072826)"><circle class="outline" cx="0" cy="0" r="32.5" fill="#4C8EDA" stroke="#2870c2" stroke-width="2px"/><text text-anchor="middle" pointer-events="none" font-family="sans-serif" dy="2.03125" font-size="32.5" fill="#FFFFFF"/><text text-anchor="middle" pointer-events="none" y="5" font-size="10px" fill="#FFFFFF" font-family="sans-serif"> shifts_per_…</text></g><g class="node" transform="translate(-374.9055597698743,163.33361817761266)"><circle class="outline" cx="0" cy="0" r="32.5" fill="#4C8EDA" stroke="#2870c2" stroke-width="2px"/><text text-anchor="middle" pointer-events="none" font-family="sans-serif" dy="2.03125" font-size="32.5" fill="#FFFFFF"/><text text-anchor="middle" pointer-events="none" y="5" font-size="10px" fill="#FFFFFF" font-family="sans-serif"> players_per…</text></g><g class="node" transform="translate(13.712664120603705,7.3488680998242515)"><circle class="outline" cx="0" cy="0" r="32.5" fill="#4C8EDA" stroke="#2870c2" stroke-width="2px"/><text text-anchor="middle" pointer-events="none" font-family="sans-serif" dy="2.03125" font-size="32.5" fill="#FFFFFF"/><text text-anchor="middle" pointer-events="none" y="5" font-size="10px" fill="#FFFFFF" font-family="sans-serif"> players_per…</text></g><g class="node" transform="translate(-285.8796517650671,-50.50174906647882)"><circle class="outline" cx="0" cy="0" r="32.5" fill="#4C8EDA" stroke="#2870c2" stroke-width="2px"/><text text-anchor="middle" pointer-events="none" font-family="sans-serif" dy="2.03125" font-size="32.5" fill="#FFFFFF"/><text text-anchor="middle" pointer-events="none" y="5" font-size="10px" fill="#FFFFFF" font-family="sans-serif"> player_stat…</text></g><g class="node" transform="translate(-176.85141205959567,108.98148409056563)"><circle class="outline" cx="0" cy="0" r="32.5" fill="#4C8EDA" stroke="#2870c2" stroke-width="2px"/><text text-anchor="middle" pointer-events="none" font-family="sans-serif" dy="2.03125" font-size="32.5" fill="#FFFFFF"/><text text-anchor="middle" pointer-events="none" y="5" font-size="10px" fill="#FFFFFF" font-family="sans-serif"> players</text></g><g class="node" transform="translate(-449.09392040107366,-20.891059517761363)"><circle class="outline" cx="0" cy="0" r="32.5" fill="#4C8EDA" stroke="#2870c2" stroke-width="2px"/><text text-anchor="middle" pointer-events="none" font-family="sans-serif" dy="2.03125" font-size="32.5" fill="#FFFFFF"/><text text-anchor="middle" pointer-events="none" y="5" font-size="10px" fill="#FFFFFF" font-family="sans-serif"> plays</text></g><g class="node" transform="translate(631.0768990390505,158.3987304368818)"><circle class="outline" cx="0" cy="0" r="32.5" fill="#4C8EDA" stroke="#2870c2" stroke-width="2px"/><text text-anchor="middle" pointer-events="none" font-family="sans-serif" dy="2.03125" font-size="32.5" fill="#FFFFFF"/><text text-anchor="middle" pointer-events="none" y="5" font-size="10px" fill="#FFFFFF" font-family="sans-serif"> seasons</text></g></g></svg>